<?xml version="1.0" standalone="no"?>
<!DOCTYPE svg PUBLIC "-//W3C//DTD SVG 20010904//EN"
 "http://www.w3.org/TR/2001/REC-SVG-20010904/DTD/svg10.dtd">
<svg version="1.0" xmlns="http://www.w3.org/2000/svg"
 width="150.000000pt" height="882.000000pt" viewBox="0 0 650.000000 882.000000"
 preserveAspectRatio="xMidYMid meet">

<g transform="translate(0.000000,882.000000) scale(0.100000,-0.100000)"
fill="#000000" stroke="none">
<path d="M6434 5370 c-160 -108 -311 -302 -420 -537 -74 -158 -174 -446 -244
-698 -13 -44 -28 -98 -35 -120 -18 -56 -38 -127 -40 -145 -1 -8 -5 -22 -8 -30
-3 -8 -26 -85 -51 -170 -102 -352 -198 -611 -307 -834 -21 -43 -36 -83 -32
-89 3 -5 2 -7 -4 -4 -10 6 -120 -161 -115 -175 1 -5 -2 -8 -7 -8 -5 0 -27 -24
-48 -52 -115 -151 -265 -285 -417 -371 -42 -24 -73 -47 -68 -52 4 -5 2 -5 -4
-2 -22 13 -83 -23 -181 -106 -172 -146 -323 -252 -468 -329 -38 -21 -67 -38
-64 -38 7 0 70 22 114 41 17 6 35 13 40 14 46 10 369 168 475 232 153 93 338
225 423 301 89 80 164 149 200 184 40 40 47 44 47 29 0 -10 -65 -119 -123
-206 -36 -54 -58 -82 -147 -190 -64 -78 -272 -278 -360 -345 -25 -19 -47 -37
-50 -40 -18 -18 -121 -90 -129 -90 -5 0 -11 -4 -13 -9 -4 -11 -177 -121 -273
-173 -122 -66 -291 -147 -375 -178 -19 -7 -39 -17 -44 -22 -6 -4 -16 -8 -24
-8 -8 0 -28 -7 -45 -15 -158 -73 -685 -211 -940 -245 -441 -60 -609 -72 -1027
-72 -341 0 -534 10 -865 43 -223 23 -581 71 -724 99 -29 5 -60 10 -67 10 -12
0 -14 -82 -14 -485 l0 -485 3250 0 3250 0 0 2705 c0 1488 -2 2705 -4 2705 -2
0 -30 -18 -62 -40z"/>
<path d="M0 2079 l0 -198 76 -36 c253 -120 612 -240 964 -321 95 -22 146 -33
390 -80 41 -8 86 -17 100 -20 25 -5 -16 14 -145 69 -65 27 -214 99 -260 125
-239 135 -316 185 -531 348 -143 108 -207 151 -231 156 -9 1 -62 23 -108 43
-16 8 -81 36 -142 63 l-113 50 0 -199z"/>
<path d="M790 1955 c0 -3 104 -72 185 -123 28 -17 55 -35 61 -39 43 -32 356
-188 444 -222 357 -137 603 -189 942 -198 305 -8 503 13 778 82 110 28 319 95
370 119 33 16 34 17 5 11 -115 -24 -159 -28 -315 -29 -180 -1 -313 15 -430 50
-35 11 -84 16 -135 15 -101 -2 -451 16 -570 30 -161 18 -357 49 -510 81 -82
17 -157 32 -165 33 -8 1 -22 5 -30 8 -8 3 -62 17 -120 32 -135 35 -267 73
-402 118 -60 19 -108 34 -108 32z"/>
<path d="M4080 1869 c-298 -109 -658 -188 -1009 -224 -79 -7 -145 -16 -147
-18 -13 -12 202 -32 341 -31 237 1 450 48 669 149 54 25 256 152 256 161 0 2
-1 3 -2 3 -2 -1 -50 -19 -108 -40z"/>
</g>
</svg>
